<svg id="svg" version="1.1" xmlns="http://www.w3.org/2000/svg" xmlns:xlink="http://www.w3.org/1999/xlink" width="400" height="400" viewBox="0, 0, 400,400"><g id="svgg"><path id="path0" d="M195.099 62.899 C 183.226 65.257,111.506 93.439,94.922 102.263 C 86.410 106.792,85.678 109.450,86.076 134.375 C 87.378 216.030,111.054 269.148,164.453 310.214 C 187.665 328.066,199.280 332.136,210.578 326.378 C 233.328 314.784,261.786 289.364,277.943 266.204 C 301.033 233.107,313.293 185.549,313.339 128.906 C 313.359 105.503,313.745 106.078,291.319 96.138 C 266.167 84.989,242.883 75.790,218.567 67.395 C 204.010 62.369,200.834 61.761,195.099 62.899 M262.176 136.571 C 268.181 138.481,271.561 146.559,268.839 152.498 C 267.698 154.988,187.763 234.746,184.823 236.328 C 182.293 237.689,179.317 237.658,176.938 236.246 C 173.217 234.037,131.425 191.467,130.661 189.107 C 127.791 180.244,135.873 171.675,144.916 173.991 C 148.769 174.978,149.282 175.413,164.904 190.947 C 180.569 206.522,180.258 206.235,181.440 206.244 C 181.952 206.248,193.925 194.557,216.596 171.916 C 235.505 153.033,251.416 137.353,251.953 137.071 C 254.763 135.600,258.540 135.415,262.176 136.571 " stroke="none" fill="#fb6804" fill-rule="evenodd"></path><path id="path1" d="M0.000 200.000 L 0.000 400.000 200.000 400.000 L 400.000 400.000 400.000 200.000 L 400.000 0.000 200.000 0.000 L 0.000 0.000 0.000 200.000 M202.600 62.506 C 211.443 63.615,256.019 80.402,290.300 95.533 C 314.296 106.125,313.515 104.965,313.427 129.883 C 313.207 191.626,299.142 240.513,271.757 274.716 C 255.634 294.855,233.688 313.720,213.103 325.136 C 199.840 332.491,190.238 329.777,166.602 311.993 C 110.251 269.595,85.882 214.237,85.938 128.754 C 85.953 105.483,85.568 106.081,106.597 96.692 C 138.675 82.370,187.994 63.639,196.543 62.530 C 197.907 62.353,199.116 62.186,199.229 62.159 C 199.342 62.132,200.859 62.288,202.600 62.506 M253.860 136.477 C 251.047 137.482,249.296 139.146,216.016 172.444 C 186.495 201.981,182.083 206.250,181.076 206.250 C 180.081 206.250,177.812 204.148,164.474 190.871 C 147.222 173.698,147.393 173.828,142.047 173.828 C 133.269 173.828,127.347 183.098,131.402 190.491 C 132.990 193.387,174.971 235.218,177.391 236.316 C 179.677 237.353,182.494 237.331,184.740 236.256 C 187.512 234.930,267.223 155.296,268.605 152.472 C 273.028 143.431,263.457 133.048,253.860 136.477 " stroke="none" fill="#fbfcfb" fill-rule="evenodd"></path><path id="path2" d="M144.336 292.969 C 145.175 293.828,145.950 294.531,146.057 294.531 C 146.164 294.531,145.566 293.828,144.727 292.969 C 143.887 292.109,143.113 291.406,143.006 291.406 C 142.898 291.406,143.497 292.109,144.336 292.969 " stroke="none" fill="#fccd9b" fill-rule="evenodd"></path><path id="path3" d="" stroke="none" fill="#fceccb" fill-rule="evenodd"></path><path id="path4" d="M313.398 123.047 C 313.398 124.229,313.472 124.712,313.561 124.121 C 313.651 123.530,313.651 122.563,313.561 121.973 C 313.472 121.382,313.398 121.865,313.398 123.047 M313.393 131.836 C 313.396 132.910,313.472 133.303,313.562 132.709 C 313.651 132.116,313.649 131.237,313.556 130.756 C 313.464 130.276,313.390 130.762,313.393 131.836 M254.487 167.676 L 249.414 172.852 254.590 167.779 C 259.398 163.067,259.943 162.500,259.662 162.500 C 259.606 162.500,257.276 164.829,254.487 167.676 M165.234 191.602 C 172.429 198.799,178.404 204.688,178.511 204.688 C 178.619 204.688,172.820 198.799,165.625 191.602 C 158.430 184.404,152.456 178.516,152.348 178.516 C 152.241 178.516,158.040 184.404,165.234 191.602 M258.963 288.965 L 257.617 290.430 259.082 289.084 C 260.445 287.831,260.726 287.500,260.428 287.500 C 260.363 287.500,259.704 288.159,258.963 288.965 M253.495 294.434 L 252.148 295.898 253.613 294.552 C 254.977 293.299,255.258 292.969,254.959 292.969 C 254.894 292.969,254.235 293.628,253.495 294.434 " stroke="none" fill="#fcb47c" fill-rule="evenodd"></path></g></svg>